<svg width="34" height="55" viewBox="0 0 34 55" fill="none" xmlns="http://www.w3.org/2000/svg">
<path d="M29.2014 0H4.79839C2.46292 0 0.577637 1.79579 0.577637 4.00645V50.9976C0.577637 53.2062 2.46292 55 4.79839 55H29.2014C31.5327 55 33.4222 53.2062 33.4222 50.9976V4.00645C33.4222 1.79579 31.5327 0 29.2014 0ZM10.9784 2.43313H23.0256C23.33 2.43313 23.5773 2.86404 23.5773 3.39717C23.5773 3.93029 23.33 4.3632 23.0256 4.3632H10.9784C10.6719 4.3632 10.4289 3.93029 10.4289 3.39717C10.4289 2.86404 10.6719 2.43313 10.9784 2.43313ZM17.002 51.0457C15.5162 51.0457 14.3072 49.8992 14.3072 48.4883C14.3072 47.0773 15.5162 45.9349 17.002 45.9349C18.4836 45.9349 19.6926 47.0773 19.6926 48.4883C19.6926 49.8992 18.4836 51.0457 17.002 51.0457ZM30.2603 42.2892H3.74162V6.76026H30.2603V42.2892Z" fill="white"/>
</svg>
