<svg width="70" height="70" viewBox="0 0 70 70" fill="none" xmlns="http://www.w3.org/2000/svg">
<circle cx="34.9999" cy="35" r="35" fill="white" fill-opacity="0.6"/>
<circle cx="34.9999" cy="35" r="30" fill="white" fill-opacity="0.7"/>
<circle cx="34.9999" cy="35" r="25" fill="white"/>
<g clip-path="url(#clip0_85_115)">
<path d="M25.9999 26.993C25.9999 26.445 26.4449 26 26.9929 26H43.0069C43.5549 26 43.9999 26.445 43.9999 26.993V43.007C43.9997 43.2703 43.895 43.5227 43.7088 43.7089C43.5226 43.895 43.2702 43.9997 43.0069 44H26.9929C26.7297 43.9997 26.4772 43.895 26.2911 43.7089C26.1049 43.5227 26.0002 43.2703 25.9999 43.007V26.993ZM33.6219 31.415C33.5618 31.3748 33.4918 31.3518 33.4195 31.3482C33.3473 31.3447 33.2754 31.3608 33.2116 31.3949C33.1478 31.4289 33.0944 31.4797 33.0571 31.5417C33.0198 31.6037 33.0001 31.6747 32.9999 31.747V38.253C33.0001 38.3253 33.0198 38.3963 33.0571 38.4583C33.0944 38.5203 33.1478 38.5711 33.2116 38.6051C33.2754 38.6392 33.3473 38.6553 33.4195 38.6518C33.4918 38.6482 33.5618 38.6252 33.6219 38.585L38.5009 35.333C38.5558 35.2965 38.6008 35.247 38.6319 35.1889C38.663 35.1308 38.6793 35.0659 38.6793 35C38.6793 34.9341 38.663 34.8692 38.6319 34.8111C38.6008 34.753 38.5558 34.7035 38.5009 34.667L33.6209 31.415H33.6219Z" fill="#5956E9"/>
</g>
<defs>
<clipPath id="clip0_85_115">
<rect width="24" height="24" fill="white" transform="translate(22.9999 23)"/>
</clipPath>
</defs>
</svg>
